<?xml version="1.0" encoding="UTF-8"?>
<svg id="Layer_1" data-name="Layer 1" xmlns="http://www.w3.org/2000/svg" xmlns:xlink="http://www.w3.org/1999/xlink" version="1.1" viewBox="0 0 376 376">
  <defs>
    <style>
      .cls-1 {
        fill: #1967d2;
      }

      .cls-1, .cls-2, .cls-3, .cls-4, .cls-5, .cls-6, .cls-7, .cls-8, .cls-9, .cls-10, .cls-11, .cls-12 {
        stroke-width: 0px;
      }

      .cls-13 {
        filter: url(#AI_Shadow_3);
        opacity: .2;
      }

      .cls-2 {
        fill: #4285f4;
      }

      .cls-3 {
        fill: #34a853;
      }

      .cls-4 {
        fill: #5f6368;
      }

      .cls-5 {
        fill: #000;
      }

      .cls-6 {
        fill: #4285f4;
      }

      .cls-7 {
        fill: #ea4335;
      }

      .cls-8 {
        fill: #f29900;
      }

      .cls-9 {
        fill: #fbbc04;
      }

      .cls-10 {
        fill: #ccc;
      }

      .cls-11 {
        fill: #fff;
      }

      .cls-12 {
        fill: #f1f3f4;
      }
    </style>
    <filter id="AI_Shadow_3" x="-15%" y="-15%" width="140%" height="130%">
      <feGaussianBlur in="SourceAlpha" result="blur" stdDeviation="10"/>
      <feOffset dx="0" dy="5" in="blur" result="offsetBlurredAlpha"/>
      <feMerge>
        <feMergeNode in="offsetBlurredAlpha"/>
        <feMergeNode in="SourceGraphic"/>
      </feMerge>
    </filter>
  </defs>
  <g>
    <g id="svg_shadow" data-name="svg shadow" class="cls-13">
      <circle class="cls-10" cx="187.83" cy="188" r="163.13"/>
    </g>
    <g id="base">
      <g>
        <path class="cls-12" d="M188.17,343.63c-85.82,0-155.63-69.82-155.63-155.63S102.35,32.37,188.17,32.37s155.63,69.82,155.63,155.63-69.82,155.63-155.63,155.63Z"/>
        <path class="cls-11" d="M188.17,39.87c39.57,0,76.77,15.41,104.75,43.39,27.98,27.98,43.39,65.18,43.39,104.75s-15.41,76.77-43.39,104.75c-27.98,27.98-65.18,43.39-104.75,43.39s-76.77-15.41-104.75-43.39c-27.98-27.98-43.39-65.18-43.39-104.75s15.41-76.77,43.39-104.75c27.98-27.98,65.18-43.39,104.75-43.39M188.17,24.87C98.07,24.87,25.04,97.9,25.04,188s73.04,163.13,163.13,163.13,163.13-73.04,163.13-163.13S278.26,24.87,188.17,24.87h0Z"/>
      </g>
    </g>
    <g>
      <circle class="cls-2" cx="187.83" cy="188" r="154.35"/>
      <path class="cls-11" d="M342.18,188c0-49.68-23.48-93.87-59.94-122.11l-200.85,10.32c-29.52,28.11-47.92,67.8-47.92,111.78,0,50.31,24.07,94.99,61.32,123.17l198.18-10.18c30.27-28.18,49.2-68.37,49.2-112.98Z"/>
      <g>
        <polygon class="cls-8" points="256.21 74.23 256.14 71.43 253.41 74.3 256.21 74.23"/>
        <polygon class="cls-8" points="249.05 74.4 256.04 67.07 255.97 64.26 246.24 74.47 249.05 74.4"/>
        <polygon class="cls-8" points="241.88 74.57 255.87 59.91 255.8 57.1 239.07 74.64 241.88 74.57"/>
        <polygon class="cls-8" points="234.72 74.74 251.46 57.18 248.65 57.25 231.91 74.81 234.72 74.74"/>
        <polygon class="cls-8" points="227.55 74.92 244.29 57.35 241.49 57.42 224.74 74.98 227.55 74.92"/>
        <polygon class="cls-8" points="220.38 75.09 237.13 57.52 234.32 57.59 217.57 75.15 220.38 75.09"/>
        <polygon class="cls-8" points="213.21 75.26 229.96 57.69 227.15 57.76 210.4 75.32 213.21 75.26"/>
        <polygon class="cls-8" points="206.05 75.43 222.79 57.86 219.98 57.93 203.24 75.49 206.05 75.43"/>
        <polygon class="cls-8" points="198.88 75.6 215.62 58.03 212.82 58.1 196.07 75.66 198.88 75.6"/>
        <polygon class="cls-8" points="191.71 75.77 208.46 58.2 205.65 58.27 188.9 75.84 191.71 75.77"/>
        <polygon class="cls-8" points="198.48 58.44 184.5 73.11 184.56 75.92 201.29 58.38 198.48 58.44"/>
        <polygon class="cls-8" points="191.31 58.61 184.33 65.94 184.39 68.75 194.12 58.55 191.31 58.61"/>
        <polygon class="cls-8" points="184.15 58.78 184.22 61.58 186.95 58.72 184.15 58.78"/>
      </g>
      <g>
        <polygon class="cls-1" points="117.39 303.39 111.09 310.36 111.21 312.8 119.83 303.26 117.39 303.39"/>
        <polygon class="cls-1" points="124.54 303.02 111.63 317.3 114.08 317.18 126.98 302.9 124.54 303.02"/>
        <polygon class="cls-1" points="195.55 299.37 182.65 313.66 185.01 313.53 197.91 299.25 195.55 299.37"/>
        <polygon class="cls-1" points="216.76 298.28 203.85 312.57 206.21 312.44 219.11 298.16 216.76 298.28"/>
        <polygon class="cls-1" points="188.49 299.74 175.58 314.02 177.94 313.9 190.84 299.61 188.49 299.74"/>
        <polygon class="cls-1" points="220.49 311.71 220.37 309.38 218.16 311.83 220.49 311.71"/>
        <polygon class="cls-1" points="209.69 298.65 196.79 312.93 199.14 312.81 212.05 298.53 209.69 298.65"/>
        <polygon class="cls-1" points="110.75 303.73 110.85 305.66 112.68 303.63 110.75 303.73"/>
        <polygon class="cls-1" points="220.13 304.67 220 302.15 210.92 312.2 213.45 312.07 220.13 304.67"/>
        <polygon class="cls-1" points="202.62 299.01 189.72 313.29 192.07 313.17 204.98 298.89 202.62 299.01"/>
        <polygon class="cls-1" points="145.99 301.92 133.09 316.2 135.53 316.08 148.44 301.79 145.99 301.92"/>
        <polygon class="cls-1" points="138.84 302.29 125.94 316.57 128.38 316.44 141.28 302.16 138.84 302.29"/>
        <polygon class="cls-1" points="181.42 300.1 168.51 314.38 170.87 314.26 183.77 299.98 181.42 300.1"/>
        <polygon class="cls-1" points="160.17 301.19 147.27 315.47 149.67 315.35 162.57 301.07 160.17 301.19"/>
        <polygon class="cls-1" points="153.15 301.55 140.24 315.83 142.56 315.72 155.46 301.43 153.15 301.55"/>
        <polygon class="cls-1" points="174.35 300.46 161.45 314.75 163.8 314.62 176.71 300.34 174.35 300.46"/>
        <polygon class="cls-1" points="167.28 300.83 154.38 315.11 156.74 314.99 169.64 300.7 167.28 300.83"/>
        <polygon class="cls-1" points="131.69 302.65 118.79 316.94 121.23 316.81 134.13 302.53 131.69 302.65"/>
      </g>
    </g>
  </g>
  <g>
    <g>
      <path class="cls-5" d="M93.38,160.66h7.02l12.18,32.68h-6.75l-2.72-7.8h-12.41l-2.72,7.8h-6.75l12.14-32.68ZM101.13,179.88l-2.85-8.22-1.18-3.92h-.36l-1.18,3.92-2.9,8.22h8.47Z"/>
      <path class="cls-5" d="M116.98,160.66h6.11v32.68h-6.11v-32.68Z"/>
      <path class="cls-5" d="M141.08,160.66h10.96c3.38,0,6.33.68,8.83,2.05,2.51,1.37,4.44,3.29,5.8,5.75,1.36,2.46,2.04,5.31,2.04,8.53s-.68,6.07-2.04,8.54c-1.36,2.46-3.29,4.38-5.8,5.75-2.51,1.37-5.45,2.05-8.83,2.05h-10.96v-32.68ZM151.76,187.5c3.5,0,6.17-.94,8.02-2.81,1.84-1.87,2.76-4.43,2.76-7.69s-.92-5.82-2.76-7.69c-1.84-1.87-4.51-2.81-8.02-2.81h-4.57v20.99h4.57Z"/>
      <path class="cls-5" d="M174.73,191.91c-1.57-1.44-2.36-3.34-2.36-5.68,0-1.55.41-2.92,1.22-4.11.82-1.19,1.93-2.1,3.35-2.74,1.42-.64,2.99-.96,4.71-.96,2.39,0,4.42.35,6.11,1.05v-1c0-1.28-.48-2.31-1.43-3.1-.95-.79-2.23-1.19-3.83-1.19-1.09,0-2.14.25-3.15.75-1.01.5-1.85,1.16-2.51,1.99l-3.8-3.01c1.12-1.46,2.52-2.59,4.21-3.38,1.69-.79,3.53-1.19,5.53-1.19,3.53,0,6.22.82,8.06,2.46,1.84,1.64,2.76,4.05,2.76,7.21v14.33h-5.84v-2.37h-.36c-.69.91-1.61,1.66-2.74,2.24-1.13.58-2.44.87-3.92.87-2.45,0-4.45-.72-6.02-2.17ZM186.26,187.75c1.01-1.11,1.52-2.41,1.52-3.9-1.54-.73-3.16-1.1-4.85-1.1-3.08,0-4.62,1.16-4.62,3.47,0,.94.33,1.71,1,2.3.66.59,1.61.89,2.85.89,1.72,0,3.09-.55,4.1-1.67Z"/>
      <path class="cls-5" d="M205.84,192.25l-9.74-22.18h6.75l5.98,14.47h.36l5.75-14.47h6.61l-14.27,33.14h-6.39l4.94-10.95Z"/>
      <path class="cls-5" d="M237.01,175.18h-4.12v-5.11h4.12v-1.28c0-2.65.78-4.72,2.36-6.23,1.57-1.51,3.62-2.26,6.16-2.26,1.45,0,2.7.17,3.76.5v5.84c-.57-.24-1.08-.43-1.52-.55-.44-.12-.94-.18-1.52-.18-1,0-1.8.29-2.4.87-.6.58-.91,1.37-.91,2.37v.91h5.66v5.11h-5.66v18.17h-5.93v-18.17Z"/>
      <path class="cls-5" d="M256.53,192.45c-1.87-1.08-3.33-2.56-4.37-4.43-1.04-1.87-1.56-3.98-1.56-6.32s.52-4.41,1.56-6.3c1.04-1.89,2.5-3.37,4.37-4.45,1.87-1.08,4-1.62,6.39-1.62s4.47.54,6.34,1.62c1.87,1.08,3.33,2.56,4.37,4.45,1.04,1.89,1.56,3.99,1.56,6.3s-.52,4.45-1.56,6.32c-1.04,1.87-2.5,3.35-4.37,4.43-1.87,1.08-3.99,1.62-6.34,1.62s-4.51-.54-6.39-1.62ZM266.08,187.73c.97-.55,1.74-1.34,2.31-2.37.57-1.03.86-2.25.86-3.65s-.29-2.57-.86-3.61c-.57-1.03-1.34-1.83-2.31-2.37-.97-.55-2.02-.82-3.17-.82s-2.2.27-3.17.82c-.97.55-1.74,1.34-2.33,2.37-.59,1.03-.88,2.24-.88,3.61s.29,2.58.88,3.63c.59,1.05,1.37,1.85,2.33,2.4.97.55,2.02.82,3.17.82s2.2-.27,3.17-.82Z"/>
      <path class="cls-5" d="M279.26,170.07h5.57v3.1h.36c.57-1.1,1.46-2.01,2.67-2.74,1.21-.73,2.54-1.1,3.99-1.1,1.06,0,2.02.18,2.9.55v5.93c-.82-.3-1.5-.52-2.06-.66-.56-.14-1.15-.21-1.79-.21-1.75,0-3.14.64-4.17,1.92-1.03,1.28-1.54,2.9-1.54,4.85v11.62h-5.93v-23.28Z"/>
      <path class="cls-5" d="M86.54,241.53c-2.17-1.61-3.7-3.89-4.57-6.85l5.75-2.28c.45,1.73,1.22,3.12,2.31,4.15,1.09,1.03,2.45,1.55,4.08,1.55,1.36,0,2.52-.34,3.49-1.03.97-.68,1.45-1.64,1.45-2.85s-.46-2.21-1.38-2.99c-.92-.78-2.56-1.6-4.91-2.49l-1.99-.73c-2.08-.73-3.87-1.85-5.34-3.35-1.48-1.51-2.22-3.4-2.22-5.68,0-1.7.44-3.26,1.31-4.66.88-1.4,2.11-2.5,3.71-3.31,1.6-.81,3.41-1.21,5.44-1.21,2.93,0,5.24.69,6.93,2.08,1.69,1.39,2.85,3.01,3.49,4.86l-5.39,2.28c-.33-1-.91-1.85-1.74-2.53-.83-.68-1.9-1.03-3.19-1.03s-2.42.31-3.28.94c-.86.62-1.29,1.44-1.29,2.44s.41,1.8,1.22,2.49c.82.68,2.16,1.35,4.03,1.99l2.04.68c2.81.97,4.96,2.26,6.45,3.86,1.49,1.6,2.24,3.69,2.24,6.28,0,2.13-.54,3.93-1.63,5.41-1.09,1.48-2.48,2.58-4.19,3.31-1.71.73-3.46,1.1-5.28,1.1-2.84,0-5.34-.81-7.52-2.42Z"/>
      <path class="cls-5" d="M115.89,243.42c-.97-.36-1.75-.85-2.36-1.47-1.42-1.4-2.13-3.38-2.13-5.96v-10.94h-4.03v-5.11h4.03v-6.57h5.93v6.57h5.66v5.11h-5.66v9.9c0,1.22.26,2.1.77,2.63.42.5,1.15.75,2.17.75.57,0,1.05-.08,1.43-.23.38-.15.87-.41,1.47-.78v5.84c-1.3.52-2.67.78-4.12.78-1.15,0-2.2-.18-3.17-.53Z"/>
      <path class="cls-5" d="M128.53,241.78c-1.57-1.44-2.36-3.34-2.36-5.68,0-1.55.41-2.92,1.22-4.11s1.93-2.1,3.35-2.74c1.42-.64,2.99-.96,4.71-.96,2.39,0,4.42.35,6.11,1.05v-1c0-1.28-.48-2.31-1.43-3.1-.95-.79-2.23-1.19-3.83-1.19-1.09,0-2.14.25-3.15.75-1.01.5-1.85,1.16-2.51,1.99l-3.8-3.01c1.12-1.46,2.52-2.59,4.21-3.38,1.69-.79,3.53-1.19,5.53-1.19,3.53,0,6.22.82,8.06,2.46,1.84,1.64,2.76,4.05,2.76,7.21v14.33h-5.84v-2.37h-.36c-.69.91-1.61,1.66-2.74,2.24-1.13.58-2.44.87-3.92.87-2.45,0-4.45-.72-6.02-2.17ZM140.06,237.63c1.01-1.11,1.52-2.41,1.52-3.9-1.54-.73-3.16-1.1-4.85-1.1-3.08,0-4.62,1.16-4.62,3.47,0,.94.33,1.71,1,2.3.66.59,1.61.89,2.85.89,1.72,0,3.09-.55,4.1-1.67Z"/>
      <path class="cls-5" d="M152.9,220.31h5.57v3.1h.36c.6-1.13,1.52-2.03,2.76-2.72,1.24-.68,2.57-1.03,3.99-1.03,1.03,0,1.75.09,2.17.27v5.84c-.76-.3-1.69-.46-2.81-.46-1.87,0-3.36.61-4.46,1.83-1.1,1.22-1.65,2.88-1.65,4.97v11.46h-5.93v-23.28ZM179.35,243.42c-.97-.36-1.75-.85-2.36-1.47-1.42-1.4-2.13-3.38-2.13-5.96v-10.94h-4.03v-5.11h4.03v-6.57h5.93v6.57h5.66v5.11h-5.66v9.9c0,1.22.26,2.1.77,2.63.42.5,1.15.75,2.17.75.57,0,1.05-.08,1.43-.23.38-.15.87-.41,1.47-.78v5.84c-1.3.52-2.67.78-4.12.78-1.15,0-2.2-.18-3.17-.53Z"/>
      <path class="cls-5" d="M193.39,241.35c-1.45-1.73-2.17-4.15-2.17-7.26v-14.15h5.93v13.42c0,1.58.38,2.82,1.13,3.72.75.9,1.75,1.35,2.99,1.35,1.69,0,3.03-.62,4.03-1.87,1-1.25,1.49-2.83,1.49-4.75v-11.87h5.93v23.28h-5.57v-2.92h-.36c-.69,1.13-1.67,2.02-2.92,2.67-1.25.65-2.63.98-4.14.98-2.78,0-4.89-.87-6.34-2.6Z"/>
      <path class="cls-5" d="M218.35,219.94h5.57v2.83h.36c.63-1,1.55-1.85,2.76-2.53,1.21-.68,2.6-1.03,4.17-1.03,2.08,0,3.98.52,5.68,1.57,1.71,1.05,3.04,2.52,4.01,4.4.97,1.89,1.45,4.02,1.45,6.39s-.48,4.54-1.45,6.41c-.97,1.87-2.3,3.33-4.01,4.38-1.71,1.05-3.6,1.57-5.68,1.57-1.57,0-2.97-.34-4.19-1-1.22-.67-2.14-1.51-2.74-2.51h-.36l.36,3.29v9.36h-5.93v-33.14ZM233.29,237.56c.97-.58,1.74-1.38,2.31-2.42.57-1.03.86-2.22.86-3.56s-.29-2.53-.86-3.56c-.57-1.03-1.34-1.83-2.31-2.4-.97-.56-2.01-.84-3.13-.84s-2.11.28-3.08.84c-.97.56-1.74,1.36-2.31,2.4-.57,1.03-.86,2.22-.86,3.56s.29,2.53.86,3.56c.57,1.03,1.34,1.84,2.31,2.42.97.58,1.99.87,3.08.87s2.16-.29,3.13-.87Z"/>
      <path class="cls-5" d="M248.67,242.22c-1.74-1.16-2.95-2.66-3.65-4.52l5.3-2.33c.48,1.1,1.17,1.92,2.06,2.49.89.56,1.93.84,3.1.84,1.09,0,1.99-.17,2.72-.52.72-.35,1.09-.92,1.09-1.71s-.33-1.33-1-1.71c-.66-.38-1.66-.72-2.99-1.03l-2.72-.59c-1.87-.46-3.43-1.29-4.66-2.49-1.24-1.2-1.86-2.7-1.86-4.5,0-1.34.4-2.54,1.2-3.61.8-1.06,1.89-1.89,3.26-2.46,1.37-.58,2.89-.87,4.55-.87,4.77,0,7.96,1.69,9.56,5.07l-5.07,2.24c-.91-1.64-2.36-2.46-4.35-2.46-1.03,0-1.84.19-2.45.57-.6.38-.91.86-.91,1.44,0,1.1,1.03,1.92,3.08,2.46l3.4.82c2.29.58,4.02,1.46,5.19,2.65,1.16,1.19,1.74,2.65,1.74,4.38,0,1.49-.43,2.81-1.29,3.95-.86,1.14-2.04,2.03-3.53,2.67-1.49.64-3.15.96-4.96.96-2.81,0-5.08-.58-6.82-1.73Z"/>
    </g>
    <g>
      <g>
        <path class="cls-4" d="M148.92,115.98c.62,0,1.09.12,1.48.31l-.5,1.48c-.31-.16-.62-.23-.93-.23-.39,0-.7.16-1.05.39-.23.31-.39.62-.39,1.09v1.16h2.25v1.48h-2.25v7.22h-1.63v-7.22h-1.63v-1.48h1.63v-1.24c0-.85.31-1.55.85-2.1.54-.54,1.36-.85,2.17-.85Z"/>
        <path class="cls-4" d="M150.39,124.56c0-1.32.39-2.52,1.24-3.34s1.98-1.32,3.3-1.32,2.41.5,3.18,1.32c.85.85,1.32,2.02,1.32,3.34s-.5,2.52-1.32,3.34c-.85.85-1.98,1.32-3.18,1.32-1.32,0-2.41-.5-3.3-1.32-.85-.89-1.24-1.94-1.24-3.34ZM152.06,124.56c0,.93.31,1.71.85,2.25.54.62,1.24.85,2.02.85s1.48-.31,2.02-.85c.54-.62.85-1.32.85-2.25s-.31-1.71-.85-2.25c-.54-.62-1.24-.93-2.02-.93s-1.48.39-2.1.93c-.58.58-.78,1.32-.78,2.25Z"/>
        <path class="cls-4" d="M162.23,128.98h-1.63v-8.81h1.55v1.44h.12c.16-.5.54-.85,1.05-1.16.54-.31,1.05-.5,1.55-.5s.85.12,1.24.23l-.5,1.55c-.23-.12-.54-.16-.93-.16-.62,0-1.16.23-1.63.78-.5.5-.7,1.09-.7,1.79v4.81h-.12v.04Z"/>
        <path class="cls-4" d="M178.19,125.53c0,1.09-.39,2.02-1.24,2.72s-1.86,1.05-3.03,1.05c-1.09,0-2.02-.31-2.8-.93-.78-.62-1.44-1.48-1.71-2.56l1.55-.62c.12.39.23.7.5,1.05.23.31.39.54.7.78.23.23.54.39.85.54s.62.16,1.05.16c.78,0,1.44-.16,1.86-.54.5-.39.7-.93.7-1.55,0-.54-.23-1.05-.62-1.44s-1.09-.7-2.1-1.09c-1.05-.39-1.63-.62-1.98-.78-1.32-.7-2.02-1.71-2.02-3.03,0-.93.39-1.71,1.09-2.41.78-.7,1.71-1.05,2.8-1.05s1.79.23,2.56.78c.7.5,1.16,1.09,1.44,1.86l-1.55.62c-.16-.5-.39-.85-.85-1.16-.39-.31-.93-.5-1.55-.5s-1.16.16-1.63.54c-.5.31-.7.78-.7,1.32,0,.5.16.85.54,1.16.39.35,1.24.7,2.52,1.16,1.32.5,2.25,1.05,2.8,1.63s.82,1.36.82,2.29Z"/>
        <path class="cls-4" d="M182.73,129.14c-.7,0-1.32-.23-1.79-.7-.43-.43-.7-1.09-.7-1.86v-4.93h-1.55v-1.48h1.55v-2.64h1.63v2.64h2.17v1.48h-2.17v4.39c0,.62.12,1.05.31,1.16.23.23.5.31.78.31.16,0,.23,0,.39-.12s.23-.12.31-.12l.54,1.48c-.39.35-.85.39-1.48.39Z"/>
        <path class="cls-4" d="M188.71,119.9c1.24,0,2.17.31,2.91,1.05.7.62,1.09,1.55,1.09,2.64v5.36h-1.55v-1.24h-.12c-.7,1.05-1.55,1.48-2.72,1.48-.93,0-1.79-.31-2.41-.85s-1.05-1.32-1.05-2.17c0-.93.31-1.63,1.05-2.17.7-.54,1.63-.78,2.72-.78s1.79.16,2.41.54v-.39c0-.54-.23-1.09-.7-1.48-.5-.39-1.05-.62-1.55-.62-.93,0-1.63.39-2.17,1.16l-1.48-.93c.89-1.01,2.02-1.59,3.57-1.59ZM186.58,126.27c0,.5.16.78.54,1.09s.78.5,1.24.5c.7,0,1.32-.23,1.86-.78.54-.54.78-1.09.78-1.79-.54-.39-1.24-.62-2.17-.62-.7,0-1.24.16-1.71.5-.5.31-.54.62-.54,1.09Z"/>
        <path class="cls-4" d="M194.19,120.17h1.55v1.44h.12c.5-1.09,1.48-1.71,3.03-1.71h.31v1.71l-.7-.12c-.78,0-1.44.23-1.86.7-.5.5-.78,1.09-.78,1.79v4.81h-1.63v-8.62h-.04ZM204.44,129.14c-.7,0-1.32-.23-1.79-.7-.5-.5-.7-1.09-.7-1.86v-4.93h-1.55v-1.48h1.55v-2.64h1.63v2.64h2.17v1.48h-2.17v4.39c0,.62.12,1.05.31,1.16.23.16.5.31.78.31.16,0,.23,0,.39-.12s.23-.12.31-.12l.54,1.48c-.39.35-.82.39-1.48.39Z"/>
        <path class="cls-4" d="M214.81,128.98h-1.55v-1.24h-.12c-.23.5-.62.78-1.16,1.09s-1.09.5-1.63.5c-1.09,0-1.86-.31-2.52-.93-.54-.62-.85-1.48-.85-2.64v-5.59h1.63v5.44c0,1.44.78,2.17,2.17,2.17.62,0,1.16-.23,1.63-.78.5-.54.7-1.16.7-1.86v-4.97h1.63v8.81h.08Z"/>
        <path class="cls-4" d="M220.98,129.22c-.62,0-1.24-.16-1.79-.39s-.93-.62-1.24-1.09h-.12l.12,1.24v3.88h-1.63v-12.7h1.55v1.24h.12c.31-.5.7-.78,1.24-1.09.54-.31,1.09-.39,1.79-.39,1.16,0,2.1.5,2.95,1.32.85.93,1.24,2.02,1.24,3.34s-.39,2.41-1.24,3.34c-.85.89-1.82,1.28-2.99,1.28ZM220.71,127.74c.78,0,1.48-.31,2.02-.85.54-.62.78-1.32.78-2.25s-.23-1.71-.78-2.25c-.54-.62-1.16-.93-2.02-.93-.78,0-1.48.31-2.02.93s-.78,1.32-.78,2.25.23,1.71.78,2.25c.54.54,1.24.85,2.02.85Z"/>
        <path class="cls-4" d="M233.21,126.46c0,.78-.31,1.44-1.05,1.98-.7.54-1.48.78-2.52.78-.85,0-1.63-.23-2.37-.7-.7-.5-1.16-1.09-1.44-1.79l1.48-.62c.23.54.54.93.93,1.24.39.31.85.5,1.32.5.54,0,.93-.12,1.32-.31.39-.23.54-.5.54-.78,0-.54-.5-.93-1.32-1.24l-1.48-.39c-1.71-.5-2.56-1.24-2.56-2.52,0-.78.31-1.48,1.05-1.98.62-.5,1.48-.7,2.52-.7.78,0,1.48.16,2.1.54s1.09.85,1.32,1.48l-1.48.62c-.16-.39-.5-.62-.78-.85-.39-.23-.78-.31-1.24-.31-.43,0-.78.12-1.16.31-.31.23-.54.5-.54.78,0,.5.5.85,1.44,1.09l1.32.31c1.71.43,2.6,1.24,2.6,2.56Z"/>
      </g>
      <g>
        <path class="cls-6" d="M89.32,129.22c-4.08,0-7.42-3.18-7.42-7.26s3.34-7.22,7.42-7.22c2.17,0,3.84.85,4.97,2.02l-1.48,1.44c-.85-.78-2.02-1.44-3.57-1.44-2.91,0-5.2,2.37-5.2,5.32s2.25,5.32,5.2,5.32c1.86,0,2.95-.78,3.65-1.48.54-.54.93-1.44,1.09-2.52h-4.7v-2.02h6.64c.12.39.12.78.12,1.24,0,1.48-.39,3.34-1.71,4.66-1.28,1.2-2.95,1.94-5.01,1.94Z"/>
        <path class="cls-7" d="M106.36,124.56c0,2.72-2.1,4.66-4.58,4.66s-4.58-1.98-4.58-4.66,2.1-4.66,4.58-4.66,4.58,2.02,4.58,4.66ZM104.3,124.56c0-1.71-1.16-2.8-2.56-2.8s-2.56,1.16-2.56,2.8,1.16,2.8,2.56,2.8,2.56-1.09,2.56-2.8Z"/>
        <path class="cls-9" d="M116.69,124.56c0,2.72-2.1,4.66-4.58,4.66s-4.58-1.98-4.58-4.66,2.1-4.66,4.58-4.66c2.52,0,4.58,2.02,4.58,4.66ZM114.67,124.56c0-1.71-1.16-2.8-2.56-2.8s-2.56,1.16-2.56,2.8,1.16,2.8,2.56,2.8c1.32.08,2.56-1.09,2.56-2.8Z"/>
        <path class="cls-6" d="M126.75,120.17v8.39c0,3.46-2.02,4.93-4.43,4.93-2.25,0-3.65-1.55-4.12-2.72l1.79-.78c.31.78,1.09,1.63,2.37,1.63,1.55,0,2.52-.93,2.52-2.72v-.7h-.12c-.5.54-1.32,1.09-2.52,1.09-2.37,0-4.43-2.02-4.43-4.66s2.17-4.66,4.43-4.66c1.09,0,2.02.5,2.52,1.05h.12v-.78h1.9v-.08h-.04ZM124.96,124.6c0-1.63-1.09-2.91-2.52-2.91s-2.56,1.16-2.56,2.91c0,1.63,1.16,2.8,2.56,2.8,1.44.04,2.52-1.13,2.52-2.8Z"/>
        <path class="cls-3" d="M130.36,115.24v13.71h-2.02v-13.71h2.02Z"/>
        <path class="cls-7" d="M138.39,126.07l1.55,1.09c-.54.78-1.71,2.1-3.88,2.1-2.64,0-4.58-2.02-4.58-4.66,0-2.8,1.98-4.66,4.39-4.66s3.57,1.98,4,2.95l.23.54-6.29,2.6c.5.93,1.24,1.44,2.25,1.44,1.05,0,1.79-.58,2.33-1.4ZM133.54,124.48l4.23-1.71c-.23-.62-.93-1.05-1.79-1.05-1.05.04-2.52.85-2.45,2.76Z"/>
      </g>
    </g>
  </g>
</svg>